HIERARCHY
ROOT Hips
{
	OFFSET 0.000000 100.481300 0.000000
	CHANNELS 6 Xposition Yposition Zposition Xrotation Yrotation Zrotation
	JOINT Spine
	{
		OFFSET -0.279200 12.230698 -2.892100
		CHANNELS 3 Xrotation Yrotation Zrotation
		JOINT Spine1
		{
			OFFSET -0.325700 14.269203 -3.374200
			CHANNELS 3 Xrotation Yrotation Zrotation
			JOINT Spine2
			{
				OFFSET -0.372300 16.307602 -0.352600
				CHANNELS 3 Xrotation Yrotation Zrotation
				JOINT Neck
				{
					OFFSET -0.418800 17.814194 8.416900
					CHANNELS 3 Xrotation Yrotation Zrotation
					JOINT Head
					{
						OFFSET 0.000000 7.031097 3.806800
						CHANNELS 3 Xrotation Yrotation Zrotation
						JOINT HeadTop_End
						{
							OFFSET 0.000000 24.646606 12.978600
							CHANNELS 3 Xrotation Yrotation Zrotation
							End Site
							{
								OFFSET 0.000000 27.854965 0.000000
							}
						}
					}
				}
				JOINT LeftShoulder
				{
					OFFSET 16.952999 14.495407 -7.737500
					CHANNELS 3 Xrotation Yrotation Zrotation
					JOINT LeftArm
					{
						OFFSET 9.308998 -2.777710 0.208600
						CHANNELS 3 Xrotation Yrotation Zrotation
						JOINT LeftForeArm
						{
							OFFSET 29.972298 0.000000 0.000000
							CHANNELS 3 Xrotation Yrotation Zrotation
							JOINT LeftHand
							{
								OFFSET 26.026505 0.000000 0.000000
								CHANNELS 3 Xrotation Yrotation Zrotation
								JOINT LeftHandThumb1
								{
									OFFSET 12.240501 -7.147949 9.207150
									CHANNELS 3 Xrotation Yrotation Zrotation
									JOINT LeftHandThumb2
									{
										OFFSET 4.138618 -2.389435 2.389433
										CHANNELS 3 Xrotation Yrotation Zrotation
										JOINT LeftHandThumb3
										{
											OFFSET 2.726913 -1.574387 1.574386
											CHANNELS 3 Xrotation Yrotation Zrotation
											JOINT LeftHandThumb4
											{
												OFFSET 3.941010 -2.275345 2.275342
												CHANNELS 3 Xrotation Yrotation Zrotation
												End Site
												{
													OFFSET -0.005798 5.087799 0.009903
												}
											}
										}
									}
								}
								JOINT LeftHandIndex1
								{
									OFFSET 24.424698 -1.985611 5.953459
									CHANNELS 3 Xrotation Yrotation Zrotation
									JOINT LeftHandIndex2
									{
										OFFSET 6.426697 0.000000 0.000000
										CHANNELS 3 Xrotation Yrotation Zrotation
										JOINT LeftHandIndex3
										{
											OFFSET 5.337898 0.000000 0.000000
											CHANNELS 3 Xrotation Yrotation Zrotation
											JOINT LeftHandIndex4
											{
												OFFSET 4.409401 0.000000 0.000000
												CHANNELS 3 Xrotation Yrotation Zrotation
												End Site
												{
													OFFSET 0.000000 4.409363 0.014373
												}
											}
										}
									}
								}
								JOINT LeftHandMiddle1
								{
									OFFSET 23.810104 0.000000 0.000000
									CHANNELS 3 Xrotation Yrotation Zrotation
									JOINT LeftHandMiddle2
									{
										OFFSET 7.176498 0.000000 0.000000
										CHANNELS 3 Xrotation Yrotation Zrotation
										JOINT LeftHandMiddle3
										{
											OFFSET 6.774902 0.000000 0.000000
											CHANNELS 3 Xrotation Yrotation Zrotation
											JOINT LeftHandMiddle4
											{
												OFFSET 5.403328 0.000000 0.000000
												CHANNELS 3 Xrotation Yrotation Zrotation
												End Site
												{
													OFFSET -0.027702 5.403244 0.017414
												}
											}
										}
									}
								}
								JOINT LeftHandRing1
								{
									OFFSET 22.908401 -0.839279 -6.020567
									CHANNELS 3 Xrotation Yrotation Zrotation
									JOINT LeftHandRing2
									{
										OFFSET 6.337502 0.000000 0.000000
										CHANNELS 3 Xrotation Yrotation Zrotation
										JOINT LeftHandRing3
										{
											OFFSET 5.779297 0.000000 0.000000
											CHANNELS 3 Xrotation Yrotation Zrotation
											JOINT LeftHandRing4
											{
												OFFSET 4.965698 0.000000 0.000000
												CHANNELS 3 Xrotation Yrotation Zrotation
												End Site
												{
													OFFSET 0.000000 4.965668 0.016186
												}
											}
										}
									}
								}
								JOINT LeftHandPinky1
								{
									OFFSET 20.037003 -1.530319 -10.950146
									CHANNELS 3 Xrotation Yrotation Zrotation
									JOINT LeftHandPinky2
									{
										OFFSET 5.254700 0.000000 0.000000
										CHANNELS 3 Xrotation Yrotation Zrotation
										JOINT LeftHandPinky3
										{
											OFFSET 4.810204 0.000000 0.000000
											CHANNELS 3 Xrotation Yrotation Zrotation
											JOINT LeftHandPinky4
											{
												OFFSET 3.647202 0.000000 0.000000
												CHANNELS 3 Xrotation Yrotation Zrotation
												End Site
												{
													OFFSET 0.000000 3.647186 0.011889
												}
											}
										}
									}
								}
							}
						}
					}
				}
				JOINT RightShoulder
				{
					OFFSET -15.141001 14.495407 -7.737500
					CHANNELS 3 Xrotation Yrotation Zrotation
					JOINT RightArm
					{
						OFFSET -9.308998 -2.777710 0.208500
						CHANNELS 3 Xrotation Yrotation Zrotation
						JOINT RightForeArm
						{
							OFFSET -29.972300 0.000000 0.000000
							CHANNELS 3 Xrotation Yrotation Zrotation
							JOINT RightHand
							{
								OFFSET -26.026505 0.000000 0.000000
								CHANNELS 3 Xrotation Yrotation Zrotation
								JOINT RightHandThumb1
								{
									OFFSET -12.240601 -7.148026 9.207092
									CHANNELS 3 Xrotation Yrotation Zrotation
									JOINT RightHandThumb2
									{
										OFFSET -4.138618 -2.389435 2.389433
										CHANNELS 3 Xrotation Yrotation Zrotation
										JOINT RightHandThumb3
										{
											OFFSET -2.726974 -1.574417 1.574421
											CHANNELS 3 Xrotation Yrotation Zrotation
											JOINT RightHandThumb4
											{
												OFFSET -3.941010 -2.275345 2.275343
												CHANNELS 3 Xrotation Yrotation Zrotation
												End Site
												{
													OFFSET 0.005814 5.087799 0.009927
												}
											}
										}
									}
								}
								JOINT RightHandIndex1
								{
									OFFSET -24.424698 -1.985657 5.953444
									CHANNELS 3 Xrotation Yrotation Zrotation
									JOINT RightHandIndex2
									{
										OFFSET -6.426697 0.000000 0.000000
										CHANNELS 3 Xrotation Yrotation Zrotation
										JOINT RightHandIndex3
										{
											OFFSET -5.337898 0.000000 0.000000
											CHANNELS 3 Xrotation Yrotation Zrotation
											JOINT RightHandIndex4
											{
												OFFSET -4.409401 0.000000 0.000000
												CHANNELS 3 Xrotation Yrotation Zrotation
												End Site
												{
													OFFSET 0.000000 4.409363 0.014408
												}
											}
										}
									}
								}
								JOINT RightHandMiddle1
								{
									OFFSET -23.810097 0.000000 0.000000
									CHANNELS 3 Xrotation Yrotation Zrotation
									JOINT RightHandMiddle2
									{
										OFFSET -7.176498 0.000000 0.000000
										CHANNELS 3 Xrotation Yrotation Zrotation
										JOINT RightHandMiddle3
										{
											OFFSET -6.774902 0.000000 0.000000
											CHANNELS 3 Xrotation Yrotation Zrotation
											JOINT RightHandMiddle4
											{
												OFFSET -5.403328 0.000000 0.000000
												CHANNELS 3 Xrotation Yrotation Zrotation
												End Site
												{
													OFFSET 0.027702 5.403244 0.017457
												}
											}
										}
									}
								}
								JOINT RightHandRing1
								{
									OFFSET -22.908302 -0.839325 -6.020576
									CHANNELS 3 Xrotation Yrotation Zrotation
									JOINT RightHandRing2
									{
										OFFSET -6.337502 0.000000 0.000000
										CHANNELS 3 Xrotation Yrotation Zrotation
										JOINT RightHandRing3
										{
											OFFSET -5.779297 0.000000 0.000000
											CHANNELS 3 Xrotation Yrotation Zrotation
											JOINT RightHandRing4
											{
												OFFSET -4.965698 0.000000 0.000000
												CHANNELS 3 Xrotation Yrotation Zrotation
												End Site
												{
													OFFSET 0.000000 4.965668 0.016226
												}
											}
										}
									}
								}
								JOINT RightHandPinky1
								{
									OFFSET -20.037003 -1.530334 -10.950259
									CHANNELS 3 Xrotation Yrotation Zrotation
									JOINT RightHandPinky2
									{
										OFFSET -5.254700 0.000000 0.000000
										CHANNELS 3 Xrotation Yrotation Zrotation
										JOINT RightHandPinky3
										{
											OFFSET -4.810204 0.000000 0.000000
											CHANNELS 3 Xrotation Yrotation Zrotation
											JOINT RightHandPinky4
											{
												OFFSET -3.647202 0.000000 0.000000
												CHANNELS 3 Xrotation Yrotation Zrotation
												End Site
												{
													OFFSET 0.000000 3.647186 0.011917
												}
											}
										}
									}
								}
							}
						}
					}
				}
			}
		}
	}
	JOINT LeftUpLeg
	{
		OFFSET 15.427100 -6.655098 0.678600
		CHANNELS 3 Xrotation Yrotation Zrotation
		JOINT LeftLeg
		{
			OFFSET 4.081073 -39.591068 13.024000
			CHANNELS 3 Xrotation Yrotation Zrotation
			JOINT LeftFoot
			{
				OFFSET -4.081074 -37.707932 -15.979700
				CHANNELS 3 Xrotation Yrotation Zrotation
				JOINT LeftToeBase
				{
					OFFSET 5.346399 -15.068900 20.645000
					CHANNELS 3 Xrotation Yrotation Zrotation
					JOINT LeftToe_End
					{
						OFFSET 2.754700 0.931300 11.300900
						CHANNELS 3 Xrotation Yrotation Zrotation
						End Site
						{
							OFFSET 0.000000 11.669021 0.000000
						}
					}
				}
			}
		}
	}
	JOINT RightUpLeg
	{
		OFFSET -15.569500 -6.655098 0.678600
		CHANNELS 3 Xrotation Yrotation Zrotation
		JOINT RightLeg
		{
			OFFSET -4.081825 -39.591045 13.023800
			CHANNELS 3 Xrotation Yrotation Zrotation
			JOINT RightFoot
			{
				OFFSET 4.081824 -37.707954 -15.979600
				CHANNELS 3 Xrotation Yrotation Zrotation
				JOINT RightToeBase
				{
					OFFSET -5.346400 -15.068900 20.645000
					CHANNELS 3 Xrotation Yrotation Zrotation
					JOINT RightToe_End
					{
						OFFSET -2.754700 0.931300 11.300900
						CHANNELS 3 Xrotation Yrotation Zrotation
						End Site
						{
							OFFSET 0.000000 11.669021 0.000000
						}
					}
				}
			}
		}
	}
}
MOTION
Frames: 5
Frame Time: 0.033333
1.861675 21.507240 17.672493 -55.876084 -22.177023 20.795633 62.698145 -23.853935 4.245566 9.014724 -6.321034 -0.560397 9.124294 -6.394242 0.168020 1.288458 1.890525 -1.683970 -3.668577 5.555535 -9.863336 0.000001 0.000002 0.000002 13.328257 -50.619133 10.411728 -16.591756 24.167487 -1.353259 -0.000004 -122.744674 0.000003 -18.218411 -10.207659 -20.967262 -6.000724 -6.126812 4.616746 5.975213 12.647538 1.348342 -7.335839 -0.421724 13.147349 -0.000001 -0.000001 0.000000 0.069858 2.623031 -2.564634 0.184689 1.460891 -14.410323 0.184702 1.460882 -14.410267 -0.000000 0.000000 -0.000001 0.255158 3.844806 -14.656252 0.215181 1.574737 -15.561220 0.215184 1.574729 -15.561174 0.000000 -0.000001 0.000000 0.581417 4.766471 -24.229826 0.393461 2.112590 -21.098188 0.393459 2.112576 -21.098174 0.000000 0.000002 0.000003 0.566911 4.734090 -23.882619 0.380798 2.079482 -20.751718 0.380777 2.079444 -20.751691 -0.000000 0.000001 0.000001 1.244787 15.236564 3.373242 -19.060473 -29.152019 81.273282 0.000011 38.961482 -0.000002 14.764304 -10.940250 -43.316561 -13.964569 17.994681 -8.156023 6.417185 -14.929721 -2.153418 -10.976721 24.544908 -6.961050 0.000001 -0.000003 0.000001 20.747873 12.104796 -50.816365 0.000000 -0.000000 0.000015 0.000000 0.000001 0.000002 0.000000 0.000001 -0.000000 1.633583 1.228315 -51.010619 -0.000002 -0.000047 0.000599 -0.000001 0.000034 -0.000424 -0.000000 0.000004 0.000001 -7.567675 -6.576351 -50.472373 0.005859 -0.233768 2.870696 0.014344 0.365650 -4.492997 0.000000 0.000003 0.000001 -21.962070 -10.468560 -48.927285 -0.000000 -0.000488 0.005985 0.000263 0.049237 -0.604192 0.000001 -0.000002 -0.000000 26.989954 52.850033 -119.121286 93.748335 62.030043 49.110576 -4.022352 22.455760 -13.675253 -17.057568 0.000004 0.000004 0.000000 -0.000000 0.000000 -19.715329 -31.522259 34.485533 72.239093 -30.647936 1.292211 4.067467 -7.310825 -28.842922 -33.435490 0.000002 -0.000008 -0.000001 0.000000 -0.000001 
7.134045 22.874245 15.974998 -48.569390 -26.168418 24.585607 62.193558 -24.221435 3.822488 8.845638 -6.569393 -1.442497 8.990770 -6.425382 -0.796303 1.653736 2.074004 -1.466566 -2.830523 7.792184 -8.780059 -0.000000 -0.000002 0.000002 11.130588 -43.045102 7.189274 -15.830319 14.733983 -3.670785 0.000001 -123.010150 0.000002 -5.508874 -10.621875 -19.441749 1.259318 -6.504243 3.548516 6.360378 15.439846 1.615691 -5.878509 8.607244 15.620578 0.000001 0.000000 0.000000 -0.258211 1.297921 -11.247909 0.405646 2.143872 -21.426203 0.761242 2.889754 -29.510652 0.000000 0.000000 -0.000002 0.194158 3.799497 -21.397483 0.683535 2.748104 -27.930520 0.512028 2.397143 -24.111118 -0.000001 -0.000000 0.000001 1.116018 5.774711 -28.724378 1.061998 3.365448 -35.018858 0.695277 2.770109 -28.174498 -0.000000 0.000000 -0.000001 -1.443689 10.209185 -29.564976 1.370850 3.767171 -39.980673 0.730280 2.834418 -28.890501 0.000002 -0.000000 0.000001 1.193227 14.985068 3.210102 -23.499698 -24.433690 80.429999 -0.000006 37.492927 -0.000003 13.127764 -8.290935 -44.709565 -13.964563 17.994675 -8.156020 6.417186 -14.929730 -2.153410 -10.976729 24.544911 -6.961051 0.000003 -0.000002 0.000001 20.747873 12.104798 -50.816355 0.000001 -0.000002 0.000012 0.000001 0.000001 0.000004 -0.000000 -0.000001 0.000001 1.633591 1.228323 -51.010633 -0.000002 -0.000056 0.000596 -0.000000 0.000026 -0.000424 -0.000001 0.000000 0.000000 -7.567673 -6.576341 -50.472376 0.005855 -0.233766 2.870699 0.014344 0.365627 -4.492998 -0.000000 -0.000001 -0.000002 -21.962077 -10.468560 -48.927288 -0.000000 -0.000482 0.005984 0.000261 0.049212 -0.604188 0.000000 -0.000001 0.000001 37.083689 52.357372 -121.414208 78.600813 66.569483 68.737822 -14.155862 8.413036 -21.513788 -17.011177 0.000003 -0.000012 -0.000000 0.000000 -0.000000 -25.905673 -31.010053 32.420985 75.604593 -29.082344 -0.342604 -1.254173 -5.728270 -33.282945 -30.530648 -0.000001 0.000002 -0.000002 0.000001 0.000001 
14.226280 26.371773 11.321861 -40.673442 -29.251849 30.834445 61.395382 -26.292880 2.926580 8.653506 -6.848644 -2.404182 8.846764 -6.476267 -1.842956 2.032246 2.289012 -1.144798 -2.420917 10.492654 -7.257114 -0.000003 -0.000000 0.000002 9.724745 -34.603644 4.812647 -17.320151 4.657311 -4.918943 -0.000058 -116.454671 -0.000075 5.406871 -10.633777 -18.549197 8.160461 -7.411279 2.310782 6.729809 18.176064 1.862235 -4.759216 17.452808 17.857678 -0.000000 0.000001 0.000004 -1.085201 0.077087 -19.503667 0.700142 2.779171 -28.275110 1.667480 4.094190 -44.305986 0.000002 0.000001 -0.000001 0.046737 3.772894 -27.731497 1.374777 3.771841 -40.040522 0.916998 3.148729 -32.467110 -0.000001 -0.000000 0.000001 1.753995 6.692166 -32.883352 1.989869 4.399478 -48.657281 1.065027 3.369755 -35.070323 0.000002 0.000000 -0.000001 -2.435626 15.940193 -34.581094 2.826416 5.010967 -58.828624 1.171010 3.515620 -36.835080 -0.000002 0.000001 -0.000000 1.163446 15.087352 3.155306 -25.855259 -20.372042 80.505848 0.000009 40.021569 -0.000011 11.519541 -7.387646 -45.710529 -13.964568 17.994678 -8.156010 6.417185 -14.929725 -2.153418 -10.976714 24.544910 -6.961065 0.000002 -0.000003 0.000002 20.747868 12.104795 -50.816365 0.000000 -0.000002 0.000015 -0.000000 0.000001 0.000003 -0.000000 0.000000 -0.000000 1.633586 1.228322 -51.010622 0.000001 -0.000055 0.000597 0.000002 0.000042 -0.000427 -0.000001 -0.000001 0.000000 -7.567671 -6.576346 -50.472390 0.005855 -0.233765 2.870699 0.014342 0.365626 -4.492998 -0.000000 0.000001 -0.000001 -21.962065 -10.468563 -48.927275 -0.000001 -0.000489 0.005985 0.000263 0.049239 -0.604192 -0.000000 0.000000 -0.000000 33.965824 53.705170 -96.686334 108.268484 50.454792 42.532476 -38.673112 -0.496314 -33.034551 -16.512655 -0.008507 0.542362 -0.000000 0.000001 0.000002 -38.106541 -29.358561 22.866186 79.034489 -22.312015 -0.566209 -2.172782 -5.836106 -37.154545 -27.313112 -0.000009 0.000032 0.000002 0.000003 -0.000001 
20.186226 26.885078 7.730385 -32.328631 -31.211171 37.295056 60.770775 -28.107033 2.567542 8.456101 -7.121381 -3.356044 8.708632 -6.523070 -2.878108 2.419873 2.515005 -0.851929 -2.002491 13.240807 -5.882551 -0.000000 0.000001 -0.000003 8.844391 -26.898275 2.788484 -20.905706 -4.705010 -5.889869 -0.000010 -108.320148 0.000007 14.728021 -10.407263 -17.674426 12.650158 -8.603506 1.627075 6.985091 20.096039 2.026341 -4.183262 22.720925 19.147105 0.000000 0.000000 0.000001 -1.962330 -1.173454 -24.964958 0.925454 3.161959 -32.620703 2.431417 4.750552 -54.188672 0.000000 0.000000 -0.000000 -0.112704 3.714488 -31.375802 1.939576 4.354849 -47.998424 1.232026 3.595479 -37.818850 0.000000 -0.000000 -0.000000 2.364863 7.490969 -34.765417 2.723149 4.947258 -57.638860 1.311880 3.695851 -39.074713 0.000001 -0.000000 0.000000 -2.979151 20.649829 -36.934863 3.982698 5.545726 -71.347869 1.487506 3.901762 -41.725021 0.000000 0.000000 0.000001 1.158157 15.587462 3.189847 -26.604278 -17.135655 80.813507 0.000018 46.053537 -0.000018 9.891732 -8.012503 -46.498828 -13.964560 17.994687 -8.156019 6.417185 -14.929735 -2.153422 -10.976719 24.544930 -6.961060 0.000000 -0.000004 0.000002 20.747874 12.104798 -50.816365 0.000001 0.000003 0.000009 -0.000000 -0.000000 0.000003 0.000000 0.000000 -0.000001 1.633581 1.228321 -51.010639 0.000001 -0.000043 0.000598 -0.000001 0.000023 -0.000427 -0.000000 0.000006 0.000000 -7.567675 -6.576341 -50.472390 0.005858 -0.233759 2.870702 0.014342 0.365629 -4.492999 -0.000000 0.000001 -0.000000 -21.962074 -10.468552 -48.927302 -0.000001 -0.000483 0.005987 0.000259 0.049214 -0.604190 0.000002 0.000000 -0.000000 134.326202 102.146695 -164.131713 115.980259 29.197730 30.961196 -33.909287 -30.160128 -8.971876 -17.504293 0.000005 -0.000006 0.000000 -0.000000 -0.000000 -49.925664 -29.668542 18.791531 80.363159 -17.772084 -2.023333 -1.355855 -6.781842 -42.292620 -24.077510 -0.000001 0.000014 0.000003 0.000001 0.000001 
24.138248 28.826942 3.343506 -23.731130 -31.887981 44.399628 59.965434 -30.442331 1.694742 8.301515 -7.301380 -4.091234 8.613438 -6.510015 -3.685825 2.765250 2.661698 -0.840577 -0.643479 14.826544 -5.741635 0.000001 -0.000004 -0.000003 8.274767 -22.317402 0.374794 -25.563479 -10.505547 -6.195817 -0.000018 -99.617032 -0.000007 21.954436 -9.544682 -16.110186 12.902960 -9.504547 2.218718 7.033509 20.462668 2.056905 -4.224341 21.032234 18.765847 0.000000 0.000000 0.000002 -1.380233 -3.155441 -25.910823 0.897390 3.117740 -32.108344 2.467731 4.776455 -54.625964 -0.000000 0.000000 0.000000 -0.169520 3.569874 -30.650218 1.939036 4.354361 -47.991194 1.205476 3.561082 -37.393564 0.000001 0.000000 0.000000 2.770060 8.236797 -32.976146 2.725230 4.948582 -57.663046 1.214017 3.572196 -37.530797 0.000000 -0.000001 0.000001 -4.220730 23.157282 -35.075047 4.018412 5.557596 -71.717096 1.420126 3.825037 -40.725085 0.000001 -0.000001 0.000000 1.167425 16.396250 3.264618 -27.419769 -14.484791 80.718219 0.000018 52.614279 -0.000010 8.229567 -8.958519 -47.102142 -13.964565 17.994673 -8.156023 6.417194 -14.929728 -2.153419 -10.976720 24.544918 -6.961053 0.000003 -0.000004 0.000002 20.747868 12.104794 -50.816358 -0.000000 -0.000003 0.000012 0.000001 -0.000000 0.000005 -0.000000 -0.000001 -0.000000 1.633581 1.228309 -51.010609 0.000001 -0.000048 0.000598 0.000001 0.000041 -0.000427 -0.000001 -0.000000 -0.000001 -7.567673 -6.576348 -50.472383 0.005857 -0.233750 2.870696 0.014343 0.365624 -4.492998 0.000001 -0.000004 0.000000 -21.962065 -10.468558 -48.927285 -0.000002 -0.000478 0.005989 0.000260 0.049206 -0.604188 -0.000000 0.000002 0.000001 160.530578 153.247124 -166.789818 109.947707 1.222176 7.734761 -29.718939 -17.921998 -25.175485 -24.127804 0.000005 0.000004 -0.000000 0.000001 -0.000000 -59.951439 -26.981300 16.054368 78.465206 -11.786212 -2.803825 2.194451 -9.046299 -44.736233 -21.610828 0.000008 -0.000017 0.000001 0.000001 -0.000004 
